<?xml version="1.0" encoding="utf-8"?>
<!-- Generator: Adobe Illustrator 25.0.0, SVG Export Plug-In . SVG Version: 6.00 Build 0)  -->
<svg version="1.1" id="图层_1" xmlns="http://www.w3.org/2000/svg" xmlns:xlink="http://www.w3.org/1999/xlink" x="0px" y="0px"
	 viewBox="60 35 250 270" style="enable-background:new 0 0 364.89 348.6;" xml:space="preserve">
<style type="text/css">
	.st1{fill:#FFFFFF;}
	.st2{fill:#1E874A;}
</style>
<path class="st1" d="M144,36.19v16.84c0,1.53,0.5,3.02,1.42,4.23l16.67,22.05c1.33,1.76,3.4,2.79,5.6,2.79h43.69
	c1.79,0,3.56,0.28,5.27,0.82c8.99,2.87,35.63,14.12,36.17,46.96c0.65,39.53-43,46.05-46.26,46.7c-3.06,0.61-2.67,21.6-35.7,43.79
	c-1.88,1.27-0.99,4.21,1.28,4.21h38.54c0.19,0-0.96,0.2,7.62-0.12c4.57-0.17,87.51-4.66,91.86-94.58
	c4.17-86.35-77.22-94.24-82.78-94.67c-0.19-0.01-0.37-0.02-0.56-0.02H145C144.45,35.19,144,35.64,144,36.19z"/>
<g>
	<path class="st1" d="M61.36,287.21l14.96-1.08c0.32,2.8,0.98,4.94,1.98,6.4c1.62,2.38,3.93,3.56,6.94,3.56
		c2.24,0,3.97-0.61,5.19-1.82s1.82-2.62,1.82-4.22c0-1.52-0.58-2.88-1.73-4.08s-3.84-2.33-8.05-3.4
		c-6.89-1.79-11.81-4.16-14.75-7.12c-2.96-2.96-4.44-6.74-4.44-11.32c0-3.01,0.76-5.86,2.27-8.54c1.51-2.68,3.79-4.79,6.84-6.32
		c3.04-1.53,7.21-2.3,12.51-2.3c6.5,0,11.46,1.39,14.87,4.18c3.41,2.79,5.44,7.22,6.09,13.31l-14.82,1
		c-0.39-2.64-1.22-4.56-2.48-5.76s-3-1.8-5.22-1.8c-1.83,0-3.2,0.45-4.13,1.34c-0.93,0.89-1.39,1.98-1.39,3.26
		c0,0.93,0.38,1.77,1.15,2.52c0.74,0.77,2.5,1.5,5.27,2.16c6.87,1.71,11.79,3.44,14.76,5.18c2.97,1.75,5.14,3.92,6.49,6.5
		c1.35,2.59,2.03,5.48,2.03,8.68c0,3.76-0.9,7.23-2.71,10.4c-1.8,3.17-4.33,5.58-7.56,7.22c-3.24,1.64-7.32,2.46-12.25,2.46
		c-8.65,0-14.64-1.92-17.97-5.76S61.8,293.14,61.36,287.21z"/>
	<path class="st1" d="M109.94,247.96h23.35c4.6,0,8.32,0.72,11.16,2.16s5.18,3.51,7.03,6.2c1.85,2.7,3.19,5.83,4.03,9.4
		c0.83,3.58,1.25,7.36,1.25,11.36c0,6.27-0.62,11.13-1.86,14.59s-2.96,6.35-5.15,8.68c-2.2,2.33-4.56,3.89-7.08,4.66
		c-3.45,1.07-6.57,1.6-9.37,1.6h-23.35v-58.65H109.94z M125.66,261.24v32.05h3.85c3.28,0,5.62-0.42,7.01-1.26s2.48-2.31,3.26-4.4
		c0.79-2.09,1.18-5.49,1.18-10.18c0-6.22-0.88-10.47-2.64-12.76c-1.76-2.29-4.67-3.44-8.74-3.44L125.66,261.24L125.66,261.24z"/>
	<path class="st1" d="M177.26,247.96h26.13c5.69,0,9.95,1.56,12.79,4.68c2.83,3.12,4.25,7.56,4.25,13.33
		c0,5.92-1.54,10.55-4.63,13.89s-7.8,5-14.14,5h-8.6v21.77h-15.79L177.26,247.96L177.26,247.96z M193.05,272.97h3.85
		c3.03,0,5.16-0.61,6.38-1.82c1.23-1.21,1.84-2.77,1.84-4.66c0-1.84-0.53-3.4-1.6-4.68c-1.06-1.28-3.07-1.92-6-1.92h-4.48v13.08
		H193.05z"/>
	<path class="st1" d="M222.9,247.96h26.13c5.69,0,9.95,1.56,12.79,4.68c2.83,3.12,4.25,7.56,4.25,13.33
		c0,5.92-1.54,10.55-4.63,13.89c-3.09,3.34-7.8,5-14.14,5h-8.6v21.77h-15.79L222.9,247.96L222.9,247.96z M238.68,272.97h3.85
		c3.03,0,5.16-0.61,6.38-1.82c1.23-1.21,1.84-2.77,1.84-4.66c0-1.84-0.53-3.4-1.6-4.68c-1.06-1.28-3.07-1.92-6-1.92h-4.48v13.08
		H238.68z"/>
	<path class="st1" d="M268.53,247.96h26.13c5.69,0,9.95,1.56,12.79,4.68c2.83,3.12,4.25,7.56,4.25,13.33
		c0,5.92-1.54,10.55-4.63,13.89c-3.09,3.34-7.8,5-14.14,5h-8.6v21.77h-15.79L268.53,247.96L268.53,247.96z M284.32,272.97h3.85
		c3.03,0,5.16-0.61,6.38-1.82c1.23-1.21,1.84-2.77,1.84-4.66c0-1.84-0.53-3.4-1.6-4.68c-1.06-1.28-3.07-1.92-6-1.92h-4.48v13.08
		H284.32z"/>
</g>
<path class="st2" d="M83.6,35.44v29.97c0,0,3.93,17.34,20.85,36.92c20,22.17,32.62,39.41,36.74,45.22c1.18,1.67,2.06,3.53,2.58,5.52
	c1.7,6.54,3.23,20.66-13.26,25.28H74.04v46.05h66.03c0,0,46.48-4.78,56.47-41.7s-2.39-55.17-17.05-75.15
	C168,91.89,150.84,71.69,143.95,63.69c-2.36-2.74-4.06-5.97-5.01-9.46c-1.26-4.65-2.54-11.52-1.85-18.79L83.6,35.44L83.6,35.44z"/>
</svg>
