<?xml version="1.0" encoding="utf-8"?>
<!-- Generator: Adobe Illustrator 25.0.0, SVG Export Plug-In . SVG Version: 6.00 Build 0)  -->
<svg version="1.1" id="图层_1" xmlns="http://www.w3.org/2000/svg" xmlns:xlink="http://www.w3.org/1999/xlink" x="0px" y="0px"
	 viewBox="0 0 141.73 141.73" style="enable-background:new 0 0 141.73 141.73;" xml:space="preserve">
<!-- <style type="text/css">
	.st1{fill:#009944;}
	.st2{fill:currentColor;}
	.st3{fill:currentColor;}
</style> -->
<g>
	<path class="st1" d="M78.81,73.16c0.43-1.36,0.76-2.77,0.99-4.22c0.24-1.49,0.36-3.02,0.36-4.58c0-6.61-2.2-12.71-5.9-17.59
		l-0.13-0.16l-1.8-2.12l-5.06-5.98l-5.25-6.2l-5.27-6.24c-0.26-0.26-0.5-0.54-0.71-0.83c-0.29-0.36-0.56-0.75-0.8-1.15
		c-1.03-1.72-1.63-3.74-1.63-5.91c0-2.43,0.76-4.69,2.05-6.55H32.58c-1.84,2.82-2.91,6.19-2.91,9.81c0,4.03,1.32,7.75,3.56,10.75
		l0.18,0.23l4.52,5.89l6.28,8.17l6.05,7.87l4.01,5.22h0.01c1.5,1.51,2.43,3.59,2.43,5.88c0,4.17-3.07,7.62-7.07,8.22
		c0.01,0.03,0.03,0.06,0.05,0.09H48.4h-9.47H26.08v5.74v14.02h24.93c1.68,0,3.33-0.14,4.94-0.43c3.76-0.63,7.28-1.99,10.4-3.93
		C72.21,85.53,76.69,79.87,78.81,73.16z"/>
	<path class="st2" d="M82.14,11.61c-0.07,0-0.15,0.01-0.22,0.02h-7.39H62.76h-5.53c-0.29,0-0.52,0.23-0.52,0.52v8.89
		c0,0.26,0.09,0.51,0.26,0.7l7.49,8.93c0.72,0.85,1.78,1.35,2.9,1.36l14.76,0.15c11.39,0,20.62,9.23,20.62,20.62
		S93.5,73.43,82.11,73.43c-0.13,0-0.26-0.01-0.39-0.01c-0.88,3.56-2.38,6.86-4.39,9.78c-1.6,2.74-3.81,5.07-6.45,6.81
		c-1.76,1.35-3.69,2.5-5.73,3.42l18.56,0.08l1.4,0.01c24.26-0.19,43.5-21.46,40.3-46.41C122.69,25.84,103.54,10.16,82.14,11.61z"/>
</g>
<g>
	<path class="st3" d="M23.68,121.42l6.15-0.48c0.13,1.25,0.4,2.21,0.81,2.86c0.67,1.06,1.62,1.59,2.85,1.59
		c0.92,0,1.63-0.27,2.13-0.81c0.5-0.54,0.75-1.17,0.75-1.89c0-0.68-0.24-1.29-0.71-1.82s-1.58-1.04-3.31-1.52
		c-2.83-0.8-4.86-1.86-6.07-3.18c-1.22-1.32-1.83-3.01-1.83-5.06c0-1.35,0.31-2.62,0.93-3.82c0.62-1.2,1.56-2.14,2.81-2.82
		c1.25-0.68,2.97-1.03,5.15-1.03c2.67,0,4.71,0.62,6.12,1.87c1.4,1.25,2.24,3.23,2.51,5.95l-6.1,0.45c-0.16-1.18-0.5-2.04-1.02-2.57
		c-0.52-0.54-1.23-0.8-2.15-0.8c-0.75,0-1.32,0.2-1.7,0.6c-0.38,0.4-0.57,0.88-0.57,1.46c0,0.42,0.16,0.79,0.47,1.13
		c0.3,0.34,1.03,0.67,2.17,0.97c2.83,0.76,4.85,1.54,6.07,2.32c1.22,0.78,2.11,1.75,2.67,2.91c0.56,1.16,0.84,2.45,0.84,3.88
		c0,1.68-0.37,3.23-1.11,4.65c-0.74,1.42-1.78,2.49-3.11,3.23c-1.33,0.73-3.01,1.1-5.04,1.1c-3.56,0-6.02-0.86-7.39-2.57
		C24.64,126.25,23.86,124.07,23.68,121.42z"/>
	<path class="st3" d="M43.67,103.87h9.61c1.89,0,3.42,0.32,4.59,0.97c1.17,0.64,2.13,1.57,2.89,2.77c0.76,1.21,1.31,2.61,1.66,4.2
		c0.34,1.6,0.51,3.29,0.51,5.08c0,2.8-0.26,4.97-0.77,6.52s-1.22,2.84-2.12,3.88c-0.91,1.04-1.88,1.74-2.91,2.08
		c-1.42,0.48-2.7,0.72-3.85,0.72h-9.61L43.67,103.87L43.67,103.87L43.67,103.87z M50.13,109.81v14.32h1.58
		c1.35,0,2.31-0.19,2.88-0.56c0.57-0.38,1.02-1.03,1.34-1.97c0.32-0.93,0.49-2.45,0.49-4.55c0-2.78-0.36-4.68-1.09-5.7
		c-0.72-1.02-1.92-1.54-3.6-1.54L50.13,109.81L50.13,109.81z"/>
	<path class="st3" d="M71.36,103.87h10.75c2.34,0,4.09,0.7,5.26,2.09c1.16,1.39,1.75,3.38,1.75,5.96c0,2.65-0.63,4.72-1.9,6.21
		c-1.27,1.49-3.21,2.23-5.82,2.23h-3.54v9.73h-6.5L71.36,103.87L71.36,103.87z M77.85,115.05h1.58c1.25,0,2.12-0.27,2.62-0.81
		c0.51-0.54,0.76-1.24,0.76-2.08c0-0.82-0.22-1.52-0.66-2.09c-0.44-0.57-1.26-0.86-2.47-0.86h-1.84L77.85,115.05L77.85,115.05
		L77.85,115.05z"/>
	<path class="st3" d="M90.13,103.87h10.75c2.34,0,4.09,0.7,5.26,2.09c1.16,1.39,1.75,3.38,1.75,5.96c0,2.65-0.63,4.72-1.9,6.21
		c-1.27,1.49-3.21,2.23-5.82,2.23h-3.54v9.73h-6.5L90.13,103.87L90.13,103.87z M96.62,115.05h1.58c1.25,0,2.12-0.27,2.62-0.81
		c0.51-0.54,0.76-1.24,0.76-2.08c0-0.82-0.22-1.52-0.66-2.09c-0.44-0.57-1.26-0.86-2.47-0.86h-1.84L96.62,115.05L96.62,115.05
		L96.62,115.05z"/>
	<path class="st3" d="M108.9,103.87h10.75c2.34,0,4.09,0.7,5.26,2.09c1.16,1.39,1.75,3.38,1.75,5.96c0,2.65-0.63,4.72-1.9,6.21
		c-1.27,1.49-3.21,2.23-5.82,2.23h-3.54v9.73h-6.5L108.9,103.87L108.9,103.87z M115.4,115.05h1.58c1.25,0,2.12-0.27,2.62-0.81
		c0.51-0.54,0.76-1.24,0.76-2.08c0-0.82-0.22-1.52-0.66-2.09c-0.44-0.57-1.26-0.86-2.47-0.86h-1.84L115.4,115.05L115.4,115.05
		L115.4,115.05z"/>
</g>
</svg>
